<svg xmlns="http://www.w3.org/2000/svg" viewBox="0 0 400 300" fill="none">
  <!-- Background decorations -->
  <circle cx="350" cy="50" r="80" fill="#3b82f6" fill-opacity="0.1"/>
  <circle cx="50" cy="250" r="60" fill="#22c55e" fill-opacity="0.1"/>
  
  <!-- Main illustration - Team collaboration -->
  <!-- Central device/screen -->
  <rect x="100" y="60" width="200" height="140" rx="8" fill="white" stroke="#e2e8f0" stroke-width="2"/>
  <rect x="100" y="60" width="200" height="30" rx="8" fill="#3b82f6"/>
  <rect x="100" y="82" width="200" height="8" fill="#3b82f6"/>
  
  <!-- Screen content -->
  <rect x="115" y="105" width="60" height="8" rx="2" fill="#94a3b8"/>
  <rect x="115" y="120" width="170" height="25" rx="4" fill="#f1f5f9"/>
  <rect x="115" y="155" width="170" height="25" rx="4" fill="#dbeafe"/>
  
  <!-- Checkmark on task -->
  <circle cx="130" cy="132" r="6" fill="#22c55e"/>
  <path d="M127 132L129 134L133 130" stroke="white" stroke-width="1.5" stroke-linecap="round" stroke-linejoin="round"/>
  
  <!-- Progress indicator -->
  <circle cx="130" cy="167" r="6" fill="#3b82f6"/>
  
  <!-- Person 1 - Left -->
  <circle cx="60" cy="120" r="25" fill="#dbeafe"/>
  <circle cx="60" cy="110" r="10" fill="#3b82f6"/>
  <path d="M45 140C45 132 52 125 60 125C68 125 75 132 75 140" fill="#3b82f6"/>
  
  <!-- Person 2 - Right -->
  <circle cx="340" cy="120" r="25" fill="#dcfce7"/>
  <circle cx="340" cy="110" r="10" fill="#22c55e"/>
  <path d="M325 140C325 132 332 125 340 125C348 125 355 132 355 140" fill="#22c55e"/>
  
  <!-- Person 3 - Bottom -->
  <circle cx="200" cy="250" r="25" fill="#fef3c7"/>
  <circle cx="200" cy="240" r="10" fill="#f59e0b"/>
  <path d="M185 270C185 262 192 255 200 255C208 255 215 262 215 270" fill="#f59e0b"/>
  
  <!-- Connection lines -->
  <path d="M85 120L100 120" stroke="#3b82f6" stroke-width="2" stroke-dasharray="4 2"/>
  <path d="M300 120L315 120" stroke="#22c55e" stroke-width="2" stroke-dasharray="4 2"/>
  <path d="M200 200L200 225" stroke="#f59e0b" stroke-width="2" stroke-dasharray="4 2"/>
  
  <!-- Floating elements -->
  <rect x="30" cy="180" width="40" height="30" rx="4" fill="white" stroke="#e2e8f0"/>
  <rect x="35" y="185" width="20" height="4" rx="1" fill="#94a3b8"/>
  <rect x="35" y="192" width="30" height="4" rx="1" fill="#3b82f6"/>
  <rect x="35" y="199" width="25" height="4" rx="1" fill="#94a3b8"/>
  
  <rect x="330" y="180" width="40" height="30" rx="4" fill="white" stroke="#e2e8f0"/>
  <circle cx="350" cy="195" r="8" fill="#dcfce7"/>
  <path d="M346 195L349 198L354 192" stroke="#22c55e" stroke-width="1.5" stroke-linecap="round"/>
  
  <!-- Stars/sparkles -->
  <path d="M320 40L322 45L327 47L322 49L320 54L318 49L313 47L318 45Z" fill="#f59e0b"/>
  <path d="M80 60L81 63L84 64L81 65L80 68L79 65L76 64L79 63Z" fill="#a855f7"/>
  <path d="M370 200L371 203L374 204L371 205L370 208L369 205L366 204L369 203Z" fill="#3b82f6"/>
</svg>