<svg xmlns="http://www.w3.org/2000/svg" viewBox="0 0 600 400" fill="none">
  <!-- Background -->
  <rect width="600" height="400" fill="#f8fafc"/>
  
  <!-- Dashboard mockup -->
  <rect x="50" y="40" width="500" height="320" rx="12" fill="white" stroke="#e2e8f0" stroke-width="2"/>
  
  <!-- Header bar -->
  <rect x="50" y="40" width="500" height="50" rx="12" fill="#3b82f6"/>
  <rect x="50" y="78" width="500" height="12" fill="#3b82f6"/>
  
  <!-- Logo in header -->
  <circle cx="80" cy="65" r="15" fill="white" fill-opacity="0.2"/>
  <path d="M74 65L78 69L86 61" stroke="white" stroke-width="2" stroke-linecap="round" stroke-linejoin="round"/>
  
  <!-- Header text -->
  <rect x="105" y="58" width="80" height="14" rx="2" fill="white" fill-opacity="0.8"/>
  
  <!-- Sidebar -->
  <rect x="50" y="90" width="120" height="270" fill="#f1f5f9"/>
  
  <!-- Sidebar items -->
  <rect x="65" y="110" width="90" height="12" rx="2" fill="#3b82f6"/>
  <rect x="65" y="135" width="70" height="10" rx="2" fill="#94a3b8"/>
  <rect x="65" y="155" width="80" height="10" rx="2" fill="#94a3b8"/>
  <rect x="65" y="175" width="60" height="10" rx="2" fill="#94a3b8"/>
  <rect x="65" y="195" width="75" height="10" rx="2" fill="#94a3b8"/>
  
  <!-- Main content area -->
  <!-- Stats cards -->
  <rect x="185" y="105" width="100" height="60" rx="8" fill="white" stroke="#e2e8f0"/>
  <rect x="195" y="115" width="40" height="8" rx="2" fill="#94a3b8"/>
  <text x="195" y="150" font-family="Arial" font-size="20" font-weight="bold" fill="#1e293b">128</text>
  
  <rect x="295" y="105" width="100" height="60" rx="8" fill="white" stroke="#e2e8f0"/>
  <rect x="305" y="115" width="40" height="8" rx="2" fill="#94a3b8"/>
  <text x="305" y="150" font-family="Arial" font-size="20" font-weight="bold" fill="#22c55e">85%</text>
  
  <rect x="405" y="105" width="100" height="60" rx="8" fill="white" stroke="#e2e8f0"/>
  <rect x="415" y="115" width="40" height="8" rx="2" fill="#94a3b8"/>
  <text x="415" y="150" font-family="Arial" font-size="20" font-weight="bold" fill="#3b82f6">24</text>
  
  <!-- Kanban board -->
  <rect x="185" y="180" width="110" height="160" rx="8" fill="#f1f5f9"/>
  <rect x="195" y="190" width="50" height="10" rx="2" fill="#94a3b8"/>
  <rect x="195" y="210" width="90" height="40" rx="4" fill="white" stroke="#e2e8f0"/>
  <rect x="195" y="260" width="90" height="40" rx="4" fill="white" stroke="#e2e8f0"/>
  <rect x="195" y="310" width="90" height="25" rx="4" fill="white" stroke="#e2e8f0"/>
  
  <rect x="305" y="180" width="110" height="160" rx="8" fill="#dbeafe"/>
  <rect x="315" y="190" width="50" height="10" rx="2" fill="#3b82f6"/>
  <rect x="315" y="210" width="90" height="40" rx="4" fill="white" stroke="#93c5fd"/>
  <rect x="315" y="260" width="90" height="40" rx="4" fill="white" stroke="#93c5fd"/>
  
  <rect x="425" y="180" width="110" height="160" rx="8" fill="#dcfce7"/>
  <rect x="435" y="190" width="50" height="10" rx="2" fill="#22c55e"/>
  <rect x="435" y="210" width="90" height="40" rx="4" fill="white" stroke="#86efac"/>
  
  <!-- Decorative elements -->
  <circle cx="560" cy="60" r="30" fill="#3b82f6" fill-opacity="0.1"/>
  <circle cx="580" cy="380" r="40" fill="#22c55e" fill-opacity="0.1"/>
  <circle cx="30" cy="200" r="25" fill="#a855f7" fill-opacity="0.1"/>
</svg>